:SAMPLES-PER-SECOND 30
:FULLY-SPECIFIED
:DEGREES
134
root  -11.7893 38.5977 -33.8694 9.02914 74.1664 14.1384
RightUpLeg  -20.113 -5.34236 -1.73512
RightLeg  -2.01604 -18.8513 6.88131
RightFoot  -3.50367 -0.508177 7.05663
RightToes  0.00048216 0.542163 -0.142577
Spine  7.71511 -0.480995 0.959669
Spine1  14.6316 0.542378 -3.61941
HEad  -2.78276 3.28872 -4.43733
LeftShoulder1  8.2128 -12.7377 -44.021
LeftArm  -15.8201 14.2543 -26.3004
LeftForeArm  49.5128 -77.6402 -57.5369
LeftHand  -0.25398 0.0180481 5.50724
RightShoulder  4.57533 8.29318 32.8424
RightArm  -11.7165 -29.8819 28.2174
RightForeArm  44.3491 77.033 107.887
RightHand  0.836035 -11.2693 -17.2464
LeftUpLeg  21.4494 4.04391 -8.86544
LeftLeg  6.97377 6.33402 -4.85139
LeftFoot  -19.8801 0.311081 2.5646
LeftToes  1.06243e-005 4.65856e-005 -8.18503e-006
135
root  -10.0422 38.219 -33.4851 6.79218 74.7867 12.256
RightUpLeg  -19.7002 -4.59278 0.108202
RightLeg  -0.150721 -21.2894 6.95884
RightFoot  -4.34388 -0.421774 6.36438
RightToes  0.00048216 0.542163 -0.142577
Spine  8.31096 -0.327658 1.79714
Spine1  14.1852 0.493223 -2.89371
HEad  -3.01331 2.59515 -4.86596
LeftShoulder1  8.18509 -12.7072 -43.9515
LeftArm  -15.339 14.606 -26.1685
LeftForeArm  48.4514 -77.5323 -56.9198
LeftHand  -0.25398 0.0180481 5.50724
RightShoulder  4.50148 8.21791 32.461
RightArm  -11.1988 -30.0259 28.077
RightForeArm  45.132 76.9065 109.384
RightHand  0.752733 -10.3486 -18.3903
LeftUpLeg  24.1025 5.97154 -6.75965
LeftLeg  9.13957 3.58726 -5.10884
LeftFoot  -20.2858 0.274012 1.95662
LeftToes  1.06243e-005 4.65856e-005 -8.18503e-006
136
root  -8.35433 37.9408 -33.1293 3.37656 76.6135 9.05457
RightUpLeg  -20.2527 -6.11871 2.78155
RightLeg  5.40393 -20.8406 4.72455
RightFoot  -3.25016 -0.0712987 0.924239
RightToes  0.00048216 0.542163 -0.142577
Spine  10.9283 -0.805253 3.45215
Spine1  11.5234 -0.125575 -2.15394
HEad  -3.31813 1.78029 -5.47542
LeftShoulder1  8.22798 -12.7563 -44.0535
LeftArm  -14.2565 15.2749 -25.768
LeftForeArm  46.6569 -77.3245 -55.6637
LeftHand  -0.25398 0.0180481 5.50724
RightShoulder  4.40399 8.08015 32.0762
RightArm  -10.734 -31.184 27.7564
RightForeArm  48.3786 76.6419 112.484
RightHand  0.762715 -10.4492 -18.2939
LeftUpLeg  26.0283 11.2651 -1.78696
LeftLeg  13.4088 -4.27272 -4.96861
LeftFoot  -20.0867 0.192105 0.984665
LeftToes  1.06243e-005 4.65856e-005 -8.18503e-006
137
root  -6.63775 37.78 -32.8663 -2.11566 78.5057 3.74887
RightUpLeg  -22.2813 -13.5272 7.42522
RightLeg  12.9754 -13.7928 0.58514
RightFoot  -0.720993 0.614129 -6.64505
RightToes  0.00048216 0.542163 -0.142577
Spine  14.0373 -1.81577 6.56449
Spine1  8.67765 -0.716771 -2.40513
HEad  -3.62489 1.26317 -6.11388
LeftShoulder1  8.34323 -12.8826 -44.34
LeftArm  -13.1131 16.2736 -25.1891
LeftForeArm  45.439 -77.1838 -54.8826
LeftHand  -0.25398 0.0180481 5.50724
RightShoulder  4.39509 8.0459 32.1111
RightArm  -10.4392 -32.4571 27.2198
RightForeArm  50.5318 76.4799 114.212
RightHand  0.763406 -10.5227 -18.0635
LeftUpLeg  26.9218 16.665 3.89262
LeftLeg  19.4735 -13.0599 -5.10371
LeftFoot  -17.6458 -0.00857794 -2.20652
LeftToes  1.06243e-005 4.65856e-005 -8.18503e-006
138
root  -4.8556 37.6757 -32.6429 -13.218 79.2506 -7.29781
RightUpLeg  -24.2062 -19.7909 12.1765
RightLeg  19.4368 -7.18921 -2.6466
RightFoot  0.820349 1.21084 -11.3386
RightToes  0.00048216 0.542163 -0.142577
Spine  15.7535 -3.08463 11.0489
Spine1  7.51335 -0.983297 -3.66552
HEad  -4.0105 1.39881 -6.55274
LeftShoulder1  8.48972 -12.998 -44.8247
LeftArm  -12.6699 17.1761 -24.6118
LeftForeArm  45.3387 -77.1837 -54.9375
LeftHand  -0.25398 0.0180481 5.50724
RightShoulder  4.50563 8.22926 32.4593
RightArm  -10.0159 -32.2997 26.4557
RightForeArm  48.2565 76.6945 111.974
RightHand  0.738702 -10.291 -18.3088
LeftUpLeg  24.2158 14.4247 6.51684
LeftLeg  28.8537 -13.103 -7.30366
LeftFoot  -10.4729 0.154463 -7.50508
LeftToes  1.06243e-005 4.65856e-005 -8.18503e-006
139
root  -3.26877 37.5262 -32.2791 -25.0027 78.8691 -19.6512
RightUpLeg  -24.8663 -19.022 14.2579
RightLeg  24.5402 -7.95841 -4.25797
RightFoot  -0.25132 1.22322 -12.5532
RightToes  0.00048216 0.542163 -0.142577
Spine  16.4857 -3.7046 13.8584
Spine1  7.50554 -1.06991 -3.12372
HEad  -4.23377 1.80729 -6.5356
LeftShoulder1  8.63089 -13.0948 -45.3246
LeftArm  -12.748 17.3509 -24.1766
LeftForeArm  44.971 -77.1202 -54.504
LeftHand  -0.25398 0.0180481 5.50724
RightShoulder  4.61512 8.45713 32.6444
RightArm  -9.28845 -30.756 25.6003
RightForeArm  42.9831 77.0492 107.428
RightHand  0.756466 -10.2574 -18.8172
LeftUpLeg  17.3035 11.4829 8.83682
LeftLeg  41.835 -11.1261 -10.1018
LeftFoot  1.6764 1.45854 -12.7698
LeftToes  1.06243e-005 4.65856e-005 -8.18503e-006
140
root  -1.90015 37.3306 -31.8052 -33.3002 78.3499 -28.7019
RightUpLeg  -25.1312 -18.3409 16.0538
RightLeg  28.7898 -8.97741 -5.54065
RightFoot  -3.56803 0.853064 -12.8506
RightToes  0.00048216 0.542163 -0.142577
Spine  16.8665 -3.64699 14.8225
Spine1  8.15662 -0.973889 -0.966314
HEad  -3.68561 1.469 -5.83738
LeftShoulder1  8.72885 -13.2103 -45.5303
LeftArm  -12.5285 16.6381 -23.9077
LeftForeArm  43.0088 -76.7897 -52.4676
LeftHand  -0.25398 0.0180481 5.50724
RightShoulder  4.62083 8.49267 32.577
RightArm  -8.63638 -29.3083 24.9867
RightForeArm  38.4017 77.2559 103.817
RightHand  0.80092 -10.4091 -19.2548
LeftUpLeg  8.51656 8.30896 10.3855
LeftLeg  54.2119 -7.96532 -11.1922
LeftFoot  11.8078 3.12031 -15.6794
LeftToes  1.06243e-005 4.65856e-005 -8.18503e-006
